<?xml version="1.0" standalone="no"?>
<!DOCTYPE svg PUBLIC "-//W3C//DTD SVG 20010904//EN"
 "http://www.w3.org/TR/2001/REC-SVG-20010904/DTD/svg10.dtd">
<svg version="1.0" xmlns="http://www.w3.org/2000/svg"
 width="2080.000000pt" height="2080.000000pt" viewBox="0 0 2080.000000 2080.000000"
 preserveAspectRatio="xMidYMid meet">
<metadata>
Created by potrace 1.14, written by Peter Selinger 2001-2017
</metadata>
<g transform="translate(0.000000,2080.000000) scale(0.100000,-0.100000)"
fill="#000000" stroke="none">
<path d="M9815 20469 c-1568 -91 -3083 -543 -4442 -1326 -632 -363 -1194 -774
-1757 -1283 l-150 -135 180 -8 c98 -4 228 -6 288 -5 l109 3 293 415 c161 228
300 416 309 418 9 2 259 -40 555 -94 436 -80 540 -101 540 -114 0 -8 -47 -188
-105 -400 -57 -211 -103 -385 -102 -387 2 -1 151 221 333 495 l330 497 579
475 580 474 1185 203 c652 112 1195 203 1207 203 16 0 141 -138 497 -550 262
-303 476 -555 476 -560 0 -6 -89 -144 -198 -308 -196 -294 -202 -304 -657
-1164 -252 -478 -463 -868 -469 -867 -6 0 -283 208 -616 463 l-605 462 -47
780 c-26 428 -48 803 -50 832 l-3 52 -747 -427 c-411 -236 -748 -430 -748
-433 0 -3 158 -90 350 -194 236 -127 350 -194 350 -205 2 -43 -206 -1431 -213
-1431 -14 0 -947 611 -947 620 0 5 96 92 214 194 l215 186 -190 187 c-105 104
-193 189 -197 190 -4 0 -163 -168 -353 -375 l-345 -377 -598 -413 -597 -414
58 -107 c207 -385 629 -1151 634 -1151 4 0 309 374 679 830 369 457 676 830
681 830 5 0 327 -292 717 -648 l708 -649 257 -505 c141 -278 257 -509 257
-515 0 -8 -568 -104 -611 -103 -10 0 -65 103 -169 318 -85 174 -157 321 -160
325 -6 7 -815 -306 -832 -321 -4 -4 105 -72 243 -151 137 -79 249 -148 249
-153 0 -5 -61 -97 -136 -204 -135 -192 -136 -194 -173 -194 -20 0 -171 11
-336 25 -165 14 -314 25 -331 23 -26 -2 -119 -85 -525 -468 l-494 -464 -260
-381 -261 -380 -99 -677 c-55 -373 -102 -678 -106 -678 -4 0 -105 193 -225
428 l-218 428 -581 17 c-319 10 -606 17 -637 17 l-58 0 0 -590 c0 -324 3 -590
7 -590 4 0 161 43 349 95 188 52 348 95 356 95 10 0 27 -96 73 -417 l59 -418
380 -460 381 -460 859 -210 860 -210 730 -770 731 -770 1027 -299 c934 -272
1028 -302 1028 -320 0 -12 -76 -442 -168 -956 l-167 -935 -805 -963 c-443
-530 -806 -967 -808 -971 -1 -5 113 -329 254 -720 141 -391 254 -714 251 -717
-3 -3 -324 259 -713 583 l-709 588 -440 1231 -440 1230 -788 757 c-654 630
-787 763 -787 785 -1 15 38 475 86 1024 48 548 84 1003 81 1011 -3 8 -356 325
-784 703 -428 379 -1052 943 -1388 1255 l-610 565 -163 800 c-89 439 -162 810
-162 824 0 14 96 462 214 995 l215 970 55 520 c31 286 56 525 56 530 -1 26
-222 -389 -357 -670 -571 -1186 -897 -2460 -973 -3799 -13 -230 -13 -882 0
-1112 90 -1594 537 -3100 1327 -4471 986 -1714 2470 -3114 4235 -3994 1252
-625 2549 -969 3952 -1049 230 -13 882 -13 1112 0 647 37 1262 129 1878 281
2847 704 5275 2650 6587 5281 540 1082 857 2150 1002 3381 3 24 -6 34 -68 81
l-71 54 -19 703 -19 703 -295 537 c-163 296 -299 535 -303 531 -3 -4 -98 -232
-210 -507 l-203 -500 -440 -444 c-242 -244 -432 -441 -423 -438 58 21 660 169
665 164 3 -4 -27 -194 -68 -424 l-74 -416 -585 -1071 c-567 -1037 -592 -1085
-789 -1516 -169 -368 -231 -517 -360 -865 l-156 -420 -196 -45 -195 -45 -516
-556 -516 -555 -346 -19 c-190 -10 -347 -17 -349 -14 -5 6 -108 1493 -107
1549 0 25 61 411 135 859 74 447 135 821 135 831 0 10 -81 195 -180 411 -117
256 -180 405 -180 426 0 18 16 174 35 345 20 172 35 322 33 333 -3 17 -444
454 -468 463 -5 2 -259 -83 -565 -187 -307 -105 -567 -191 -579 -191 -11 0
-232 63 -491 138 l-470 138 -412 609 c-227 336 -412 619 -413 630 0 11 71 346
157 744 l158 725 515 710 516 711 869 102 c479 56 886 102 906 102 l36 1 74
-193 73 -193 611 -97 c609 -97 611 -97 1240 -152 347 -30 642 -55 658 -55 l27
0 0 208 -1 207 -481 305 c-264 168 -532 338 -595 377 l-113 73 33 -53 c285
-446 518 -820 513 -824 -3 -3 -74 12 -158 33 l-152 38 -505 568 c-277 312
-506 567 -508 565 -1 -2 22 -77 52 -167 30 -91 55 -171 55 -178 0 -18 -240
-452 -250 -452 -4 0 -63 141 -130 313 l-124 312 -439 104 c-241 57 -441 100
-445 97 -4 -4 -102 -159 -217 -344 l-211 -337 -514 -72 c-283 -39 -529 -72
-545 -72 l-31 -1 -107 433 c-59 238 -107 439 -107 448 0 12 61 21 363 53 199
21 364 40 365 42 2 1 -33 133 -77 292 -45 159 -81 296 -81 304 0 9 58 33 163
68 l163 55 336 360 335 361 465 29 464 29 169 285 c94 156 183 306 198 332
l28 48 -288 190 -288 190 -3 -37 c-2 -20 -15 -203 -30 -407 l-27 -370 -160
-57 c-88 -31 -167 -57 -176 -57 -12 -1 -25 51 -64 272 l-49 273 -463 119
c-255 65 -463 123 -463 128 0 6 190 344 421 753 291 514 427 744 438 744 9 -1
270 -85 581 -188 l565 -188 49 -271 49 -272 121 108 c67 59 244 216 394 350
l273 242 -42 76 c-23 41 -114 204 -203 361 l-162 285 -162 93 c-1365 786
-2875 1234 -4466 1324 -205 12 -934 11 -1141 -1z m2798 -746 c151 -36 197 -51
197 -62 1 -41 -65 -361 -75 -361 -24 -1 -675 234 -672 243 5 17 312 226 332
227 11 0 109 -21 218 -47z m2637 -724 c193 -176 350 -324 350 -328 0 -11 -266
-271 -278 -271 -15 0 -654 699 -656 717 -1 16 201 201 222 202 6 1 170 -143
362 -320z m-4167 -1006 l387 -17 0 -30 c0 -17 -7 -147 -17 -288 -14 -220 -19
-258 -32 -258 -20 0 -834 171 -840 177 -3 2 4 100 14 218 l19 215 40 0 c23 0
215 -7 429 -17z m1669 -1656 c242 -371 243 -373 321 -431 42 -32 77 -62 77
-66 0 -5 -72 -69 -159 -143 l-159 -135 -182 -7 c-99 -4 -184 -4 -187 -1 -4 4
17 132 47 286 l54 279 -97 228 c-54 125 -97 232 -97 238 0 14 112 125 126 125
7 0 122 -168 256 -373z m-515 -124 c89 -13 113 -20 113 -32 0 -9 -14 -87 -32
-173 -37 -183 -16 -166 -185 -146 -82 9 -103 15 -103 27 0 9 12 89 27 179 25
147 29 162 47 162 12 0 71 -8 133 -17z m6289 -9509 c41 -25 74 -51 74 -58 0
-6 -62 -198 -139 -427 l-138 -416 -278 -346 c-152 -191 -282 -347 -287 -347
-17 0 -248 172 -248 185 0 7 66 183 146 391 l146 379 -13 83 c-9 64 -10 85 0
95 37 37 638 506 650 506 7 1 47 -20 87 -45z"/>
<path d="M16886 14900 c-67 -167 -69 -171 -90 -157 -11 8 -94 63 -184 122 -90
59 -166 104 -169 101 -11 -11 40 -766 51 -766 6 0 117 50 248 112 l238 111
228 -91 c125 -51 232 -92 238 -92 11 0 54 132 54 165 0 16 -525 665 -539 665
-4 0 -38 -77 -75 -170z"/>
<path d="M17980 14964 c-61 -59 -110 -113 -110 -118 0 -6 121 -263 268 -571
l268 -560 162 -19 c89 -10 165 -16 168 -13 4 4 -53 185 -127 403 l-133 397
-183 291 c-100 160 -187 292 -193 294 -6 2 -60 -45 -120 -104z"/>
<path d="M17443 12363 c39 -206 86 -325 426 -1100 l337 -768 192 -3 c106 -1
192 1 192 4 0 4 -188 369 -417 811 l-416 804 -153 140 c-84 76 -156 139 -160
139 -3 0 -4 -12 -1 -27z"/>
</g>
</svg>
